#Comment line ignore any data following # character 
#Hierarchical Translation and Rotation (.htr) file 
[Header]	
#Header keywords are followed by a single value 
FileType HTR		#Single word string
DataType HTRS		#Translation followed by rotation and scale data
FileVersion 1		#integer
NumSegments 84		#integer
NumFrames 2		#integer
DataFrameRate 30		#integer, data frame rate in this file
EulerRotationOrder ZYX
CalibrationUnits mm
RotationUnits Degrees
GlobalAxisofGravity Y
BoneLengthAxis Y
ScaleFactor 1.00
[SegmentNames&Hierarchy]
#CHILD	PARENT
MASTER GLOBAL
root MASTER
chest root
L_mid_tent01 root
R_mid_tent01 root
spine01 root
Bip01_Neck chest
L_humerus chest
R_humerus chest
weapon_bone chest
Bip01_Head Bip01_Neck
eye_left_bone Bip01_Head
eye_right_bone Bip01_Head
L_forearm L_humerus
L_front_hand L_forearm
L_weapon_bone L_forearm
L_front_hand01_01 L_front_hand
L_front_hand02_01 L_front_hand
L_front_hand03_01 L_front_hand
L_front_hand01_02 L_front_hand01_01
L_front_hand02_02 L_front_hand02_01
L_front_hand03_02 L_front_hand03_01
R_forearm R_humerus
R_front_hand R_forearm
R_weapon_bone R_forearm
R_front_hand01_01 R_front_hand
R_front_hand02_01 R_front_hand
R_front_hand03_01 R_front_hand
R_front_hand01_02 R_front_hand01_01
R_front_hand02_02 R_front_hand02_01
R_front_hand03_02 R_front_hand03_01
null_rope01_connect L_mid_tent01
Rope1_Seg01 null_rope01_connect
Rope1_Seg02 Rope1_Seg01
Rope1_Seg03 Rope1_Seg02
Rope1_Seg04 Rope1_Seg03
Rope1_Seg05 Rope1_Seg04
Rope1_Seg06 Rope1_Seg05
Rope1_Seg07 Rope1_Seg06
Rope1_Seg09 Rope1_Seg07
L_mid_hand01 Rope1_Seg09
L_mid_hand02 Rope1_Seg09
L_mid_hand03 Rope1_Seg09
null_rope02_connect R_mid_tent01
Rope2_Seg01 null_rope02_connect
Rope2_Seg02 Rope2_Seg01
Rope2_Seg03 Rope2_Seg02
Rope2_Seg04 Rope2_Seg03
Rope2_Seg05 Rope2_Seg04
Rope2_Seg06 Rope2_Seg05
Rope2_Seg07 Rope2_Seg06
Rope2_Seg09 Rope2_Seg07
R_mid_hand01 Rope2_Seg09
R_mid_hand02 Rope2_Seg09
R_mid_hand03 Rope2_Seg09
spine02 spine01
spine03 spine02
pelvis spine03
null_rope03_connect pelvis
null_rope04_connect pelvis
Rope3_Seg01 null_rope03_connect
Rope3_Seg02 Rope3_Seg01
Rope3_Seg03 Rope3_Seg02
Rope3_Seg04 Rope3_Seg03
Rope3_Seg05 Rope3_Seg04
Rope3_Seg06 Rope3_Seg05
Rope3_Seg07 Rope3_Seg06
Rope3_Seg08 Rope3_Seg07
Rope3_Seg09 Rope3_Seg08
R_rear_hand01 Rope3_Seg09
R_rear_hand02 Rope3_Seg09
R_rear_hand03 Rope3_Seg09
Rope4_Seg01 null_rope04_connect
Rope4_Seg02 Rope4_Seg01
Rope4_Seg03 Rope4_Seg02
Rope4_Seg04 Rope4_Seg03
Rope4_Seg05 Rope4_Seg04
Rope4_Seg06 Rope4_Seg05
Rope4_Seg07 Rope4_Seg06
Rope4_Seg08 Rope4_Seg07
Rope4_Seg09 Rope4_Seg08
L_rear_hand01 Rope4_Seg09
L_rear_hand02 Rope4_Seg09
L_rear_hand03 Rope4_Seg09
[BasePosition]
#SegmentName Tx, Ty, Tz, Rx, Ry, Rz, BoneLength
MASTER 0.000000 0.000000 0.000000 -90.000000 0.000000 0.000000 10.000000 
root 0.000000 0.000000 0.000000 0.000000 0.000000 0.000000 10.000000 
chest 0.000000 0.000000 0.000000 0.000000 0.000000 0.000000 10.000000 
L_mid_tent01 0.000000 0.000000 0.000000 0.000000 0.000000 0.000000 10.000000 
R_mid_tent01 0.000000 0.000000 0.000000 0.000000 0.000000 0.000000 10.000000 
spine01 0.000000 0.000000 0.000000 0.000000 0.000000 0.000000 10.000000 
Bip01_Neck 0.000000 0.000000 0.000000 0.000000 0.000000 0.000000 10.000000 
L_humerus 0.000000 0.000000 0.000000 0.000000 0.000000 0.000000 10.000000 
R_humerus 0.000000 0.000000 0.000000 0.000000 0.000000 0.000000 10.000000 
weapon_bone 0.000000 0.000000 0.000000 0.000000 0.000000 0.000000 10.000000 
Bip01_Head 0.000000 0.000000 0.000000 0.000000 0.000000 0.000000 10.000000 
eye_left_bone 0.000000 0.000000 0.000000 0.000000 0.000000 0.000000 10.000000 
eye_right_bone 0.000000 0.000000 0.000000 0.000000 0.000000 0.000000 10.000000 
L_forearm 0.000000 0.000000 0.000000 0.000000 0.000000 0.000000 10.000000 
L_front_hand 0.000000 0.000000 0.000000 0.000000 0.000000 0.000000 10.000000 
L_weapon_bone 0.000000 0.000000 0.000000 0.000000 0.000000 0.000000 10.000000 
L_front_hand01_01 0.000000 0.000000 0.000000 0.000000 0.000000 0.000000 10.000000 
L_front_hand02_01 0.000000 0.000000 0.000000 0.000000 0.000000 0.000000 10.000000 
L_front_hand03_01 0.000000 0.000000 0.000000 0.000000 0.000000 0.000000 10.000000 
L_front_hand01_02 0.000000 0.000000 0.000000 0.000000 0.000000 0.000000 10.000000 
L_front_hand02_02 0.000000 0.000000 0.000000 0.000000 0.000000 0.000000 10.000000 
L_front_hand03_02 0.000000 0.000000 0.000000 0.000000 0.000000 0.000000 10.000000 
R_forearm 0.000000 0.000000 0.000000 0.000000 0.000000 0.000000 10.000000 
R_front_hand 0.000000 0.000000 0.000000 0.000000 0.000000 0.000000 10.000000 
R_weapon_bone 0.000000 0.000000 0.000000 0.000000 0.000000 0.000000 10.000000 
R_front_hand01_01 0.000000 0.000000 0.000000 0.000000 0.000000 0.000000 10.000000 
R_front_hand02_01 0.000000 0.000000 0.000000 0.000000 0.000000 0.000000 10.000000 
R_front_hand03_01 0.000000 0.000000 0.000000 0.000000 0.000000 0.000000 10.000000 
R_front_hand01_02 0.000000 0.000000 0.000000 0.000000 0.000000 0.000000 10.000000 
R_front_hand02_02 0.000000 0.000000 0.000000 0.000000 0.000000 0.000000 10.000000 
R_front_hand03_02 0.000000 0.000000 0.000000 0.000000 0.000000 0.000000 10.000000 
null_rope01_connect 0.000000 0.000000 0.000000 0.000000 0.000000 0.000000 10.000000 
Rope1_Seg01 0.000000 0.000000 0.000000 0.000000 0.000000 0.000000 10.000000 
Rope1_Seg02 0.000000 0.000000 0.000000 0.000000 0.000000 0.000000 10.000000 
Rope1_Seg03 0.000000 0.000000 0.000000 0.000000 0.000000 0.000000 10.000000 
Rope1_Seg04 0.000000 0.000000 0.000000 0.000000 0.000000 0.000000 10.000000 
Rope1_Seg05 0.000000 0.000000 0.000000 0.000000 0.000000 0.000000 10.000000 
Rope1_Seg06 0.000000 0.000000 0.000000 0.000000 0.000000 0.000000 10.000000 
Rope1_Seg07 0.000000 0.000000 0.000000 0.000000 0.000000 0.000000 10.000000 
Rope1_Seg09 0.000000 0.000000 0.000000 0.000000 0.000000 0.000000 10.000000 
L_mid_hand01 0.000000 0.000000 0.000000 0.000000 0.000000 0.000000 10.000000 
L_mid_hand02 0.000000 0.000000 0.000000 0.000000 0.000000 0.000000 10.000000 
L_mid_hand03 0.000000 0.000000 0.000000 0.000000 0.000000 0.000000 10.000000 
null_rope02_connect 0.000000 0.000000 0.000000 0.000000 0.000000 0.000000 10.000000 
Rope2_Seg01 0.000000 0.000000 0.000000 0.000000 0.000000 0.000000 10.000000 
Rope2_Seg02 0.000000 0.000000 0.000000 0.000000 0.000000 0.000000 10.000000 
Rope2_Seg03 0.000000 0.000000 0.000000 0.000000 0.000000 0.000000 10.000000 
Rope2_Seg04 0.000000 0.000000 0.000000 0.000000 0.000000 0.000000 10.000000 
Rope2_Seg05 0.000000 0.000000 0.000000 0.000000 0.000000 0.000000 10.000000 
Rope2_Seg06 0.000000 0.000000 0.000000 0.000000 0.000000 0.000000 10.000000 
Rope2_Seg07 0.000000 0.000000 0.000000 0.000000 0.000000 0.000000 10.000000 
Rope2_Seg09 0.000000 0.000000 0.000000 0.000000 0.000000 0.000000 10.000000 
R_mid_hand01 0.000000 0.000000 0.000000 0.000000 0.000000 0.000000 10.000000 
R_mid_hand02 0.000000 0.000000 0.000000 0.000000 0.000000 0.000000 10.000000 
R_mid_hand03 0.000000 0.000000 0.000000 0.000000 0.000000 0.000000 10.000000 
spine02 0.000000 0.000000 0.000000 0.000000 0.000000 0.000000 10.000000 
spine03 0.000000 0.000000 0.000000 0.000000 0.000000 0.000000 10.000000 
pelvis 0.000000 0.000000 0.000000 0.000000 0.000000 0.000000 10.000000 
null_rope03_connect 0.000000 0.000000 0.000000 0.000000 0.000000 0.000000 10.000000 
null_rope04_connect 0.000000 0.000000 0.000000 0.000000 0.000000 0.000000 10.000000 
Rope3_Seg01 0.000000 0.000000 0.000000 0.000000 0.000000 0.000000 10.000000 
Rope3_Seg02 0.000000 0.000000 0.000000 0.000000 0.000000 0.000000 10.000000 
Rope3_Seg03 0.000000 0.000000 0.000000 0.000000 0.000000 0.000000 10.000000 
Rope3_Seg04 0.000000 0.000000 0.000000 0.000000 0.000000 0.000000 10.000000 
Rope3_Seg05 0.000000 0.000000 0.000000 0.000000 0.000000 0.000000 10.000000 
Rope3_Seg06 0.000000 0.000000 0.000000 0.000000 0.000000 0.000000 10.000000 
Rope3_Seg07 0.000000 0.000000 0.000000 0.000000 0.000000 0.000000 10.000000 
Rope3_Seg08 0.000000 0.000000 0.000000 0.000000 0.000000 0.000000 10.000000 
Rope3_Seg09 0.000000 0.000000 0.000000 0.000000 0.000000 0.000000 10.000000 
R_rear_hand01 0.000000 0.000000 0.000000 0.000000 0.000000 0.000000 10.000000 
R_rear_hand02 0.000000 0.000000 0.000000 0.000000 0.000000 0.000000 10.000000 
R_rear_hand03 0.000000 0.000000 0.000000 0.000000 0.000000 0.000000 10.000000 
Rope4_Seg01 0.000000 0.000000 0.000000 0.000000 0.000000 0.000000 10.000000 
Rope4_Seg02 0.000000 0.000000 0.000000 0.000000 0.000000 0.000000 10.000000 
Rope4_Seg03 0.000000 0.000000 0.000000 0.000000 0.000000 0.000000 10.000000 
Rope4_Seg04 0.000000 0.000000 0.000000 0.000000 0.000000 0.000000 10.000000 
Rope4_Seg05 0.000000 0.000000 0.000000 0.000000 0.000000 0.000000 10.000000 
Rope4_Seg06 0.000000 0.000000 0.000000 0.000000 0.000000 0.000000 10.000000 
Rope4_Seg07 0.000000 0.000000 0.000000 0.000000 0.000000 0.000000 10.000000 
Rope4_Seg08 0.000000 0.000000 0.000000 0.000000 0.000000 0.000000 10.000000 
Rope4_Seg09 0.000000 0.000000 0.000000 0.000000 0.000000 0.000000 10.000000 
L_rear_hand01 0.000000 0.000000 0.000000 0.000000 0.000000 0.000000 10.000000 
L_rear_hand02 0.000000 0.000000 0.000000 0.000000 0.000000 0.000000 10.000000 
L_rear_hand03 0.000000 0.000000 0.000000 0.000000 0.000000 0.000000 10.000000 
#Beginning of Data. Separated by tabs
#Fr	Tx	Ty	Tz	Rx	Ry	Rz	SF
[MASTER]
21 0.000000 0.000000 0.000000 0.001660 0.001660 0.001660 0.000000
22 0.000000 0.000000 0.000000 0.001660 0.001660 0.001660 0.000000
[root]
21 -26.574432 -1.157450 1437.076538 -91.706375 7.188744 -90.037125 1437.322754
22 -28.970076 1.154199 1439.176270 -91.706375 7.188744 -90.037125 1439.468384
[chest]
21 -84.512650 -34.090519 0.000000 -2.117274 0.462005 -179.268204 91.129311
22 -84.512650 -34.090519 0.000000 -2.117274 0.462005 -179.268204 91.129311
[L_mid_tent01]
21 27.299511 22.177458 -249.918259 -11.212391 7.173965 46.128521 252.381134
22 27.299511 22.177458 -249.918259 -11.212391 7.173965 46.128521 252.381134
[R_mid_tent01]
21 23.228794 24.509907 226.238495 -173.453110 -7.865565 48.320805 228.744751
22 23.228794 24.509907 226.238495 -173.453110 -7.865565 48.320805 228.744751
[spine01]
21 -0.361383 -0.195265 0.000000 -0.000001 -0.000007 22.052340 0.410763
22 -0.361383 -0.195265 0.000000 -0.000001 -0.000007 22.052340 0.410763
[Bip01_Neck]
21 165.484543 71.581718 0.000119 175.896118 1.177290 24.871183 180.302734
22 165.484543 71.581718 0.000119 175.896118 1.177290 24.871183 180.302734
[L_humerus]
21 -13.983130 -135.272980 -120.471481 177.317520 0.814944 177.327347 181.680161
22 -13.983130 -135.272980 -120.471481 177.317520 0.814944 177.327347 181.680161
[R_humerus]
21 -13.983309 -135.273102 125.287651 -179.087967 -0.295690 175.068390 184.909012
22 -13.983309 -135.273102 125.287651 -179.087967 -0.295690 175.068390 184.909012
[weapon_bone]
21 235.964890 -300.705902 0.000000 0.000000 -89.951546 -128.212341 382.234833
22 235.964890 -300.705902 0.000000 0.000000 -89.951546 -128.212341 382.234833
[Bip01_Head]
21 97.775497 22.186661 5.309563 3.366012 3.339071 -18.399078 100.401627
22 97.775497 22.186661 5.309563 3.366012 3.339071 -18.399078 100.401627
[eye_left_bone]
21 -24.626970 125.451866 -64.772606 0.000000 -90.000000 -99.840431 143.318359
22 -24.626970 125.451866 -64.772606 0.000000 -90.000000 -99.840431 143.318359
[eye_right_bone]
21 -24.626970 125.451866 64.327362 0.000000 -89.965736 80.156380 143.117676
22 -24.626970 125.451866 64.327362 0.000000 -89.965736 80.156380 143.117676
[L_forearm]
21 322.776093 0.000000 -0.000119 0.001372 -0.001904 -161.553818 322.776093
22 322.776093 0.000000 -0.000119 0.001372 -0.001904 -161.553818 322.776093
[L_front_hand]
21 241.149185 -0.042021 -3.300071 -179.659958 -2.242151 -0.019832 241.171753
22 241.149185 -0.042021 -3.300071 -179.659958 -2.242151 -0.019832 241.171753
[L_weapon_bone]
21 156.183838 0.000000 0.000000 0.000014 0.000007 0.000001 156.183838
22 156.183838 0.000000 0.000000 0.000014 0.000007 0.000001 156.183838
[L_front_hand01_01]
21 86.095154 20.947098 -0.655860 0.405585 -0.442306 -4.620490 88.609184
22 86.095154 20.947098 -0.655860 0.405585 -0.442306 -4.620490 88.609184
[L_front_hand02_01]
21 86.935165 -11.437475 24.513514 116.959450 3.630817 1.495453 91.046425
22 86.935165 -11.437475 24.513514 116.959450 3.630817 1.495453 91.046425
[L_front_hand03_01]
21 86.637497 -14.123976 -20.424902 -118.419884 -4.660555 -0.155069 90.126129
22 86.637497 -14.123976 -20.424902 -118.419884 -4.660555 -0.155069 90.126129
[L_front_hand01_02]
21 71.020905 -0.000179 0.000030 0.000004 -0.000005 -8.379269 71.020905
22 71.020905 -0.000179 0.000030 0.000004 -0.000005 -8.379269 71.020905
[L_front_hand02_02]
21 71.020927 -0.000119 0.000060 -0.000005 -0.000004 -8.379259 71.020927
22 71.020927 -0.000119 0.000060 -0.000005 -0.000004 -8.379259 71.020927
[L_front_hand03_02]
21 71.020905 -0.000060 0.000060 0.000015 -0.000040 -8.379267 71.020905
22 71.020905 -0.000060 0.000060 0.000015 -0.000040 -8.379267 71.020905
[R_forearm]
21 322.776428 -0.000060 0.000030 0.066610 0.203476 -163.260239 322.776428
22 322.776428 -0.000060 0.000030 0.066610 0.203476 -163.260239 322.776428
[R_front_hand]
21 238.847015 -0.006795 2.210259 -0.270529 1.703932 2.322530 238.857239
22 238.847015 -0.006795 2.210259 -0.270529 1.703932 2.322530 238.857239
[R_weapon_bone]
21 155.664093 0.002503 -0.000030 0.003487 0.001180 -90.988930 155.664078
22 155.664093 0.002503 -0.000030 0.003487 0.001180 -90.988930 155.664078
[R_front_hand01_01]
21 87.624611 14.231146 22.918642 -116.960213 3.496675 -1.324139 91.683487
22 87.624611 14.231146 22.918642 -116.960213 3.496675 -1.324139 91.683487
[R_front_hand02_01]
21 89.356956 14.367283 -19.491137 118.419647 -4.257089 0.609827 92.579636
22 89.356956 14.367283 -19.491137 118.419647 -4.257089 0.609827 92.579636
[R_front_hand03_01]
21 87.286232 -22.307278 -0.143439 -0.387970 -0.231462 4.232001 90.091743
22 87.286232 -22.307278 -0.143439 -0.387970 -0.231462 4.232001 90.091743
[R_front_hand01_02]
21 71.020905 0.000060 0.000119 -0.000005 -0.000020 8.379271 71.020905
22 71.020905 0.000060 0.000119 -0.000005 -0.000020 8.379271 71.020905
[R_front_hand02_02]
21 71.020844 -0.000030 -0.000119 0.000000 -0.000021 8.379271 71.020836
22 71.020844 -0.000030 -0.000119 0.000000 -0.000021 8.379271 71.020836
[R_front_hand03_02]
21 71.020905 0.000000 0.000030 -0.000001 -0.000020 8.379275 71.020905
22 71.020905 0.000000 0.000030 -0.000001 -0.000020 8.379275 71.020905
[null_rope01_connect]
21 328.732483 0.000000 -0.000238 160.552872 -75.066147 -124.625038 328.732483
22 328.732483 0.000000 -0.000238 160.552872 -75.066147 -124.625038 328.732483
[Rope1_Seg01]
21 0.000000 0.000000 0.000000 -143.216080 51.991676 -125.940536 0.000000
22 0.000000 0.000000 0.000000 -142.717575 52.383228 -125.750053 0.000000
[Rope1_Seg02]
21 139.999863 -0.000179 0.000000 40.304527 -3.099007 -18.492466 139.999863
22 139.999863 -0.000179 0.000000 37.572704 -2.390276 -17.807869 139.999863
[Rope1_Seg03]
21 139.999924 0.000060 -0.000060 32.736122 -9.503920 -9.780471 139.999924
22 139.999924 0.000060 -0.000060 32.780800 -8.121758 -9.966030 139.999924
[Rope1_Seg04]
21 139.999924 -0.000060 -0.000119 16.996712 -8.825438 -3.571517 139.999924
22 139.999924 -0.000060 -0.000119 18.394505 -7.797850 -4.265955 139.999924
[Rope1_Seg05]
21 139.999832 0.000119 -0.000060 0.399846 -2.823009 2.717983 139.999832
22 139.999832 0.000119 -0.000060 1.115465 -3.429948 2.803834 139.999832
[Rope1_Seg06]
21 139.999954 0.000119 -0.000060 -7.282258 1.046255 7.120890 139.999954
22 139.999954 0.000119 -0.000060 -6.466284 -0.787260 7.908851 139.999954
[Rope1_Seg07]
21 139.999985 0.000060 0.000000 -6.989757 0.605787 9.220706 139.999985
22 139.999985 0.000060 0.000000 -5.541398 -1.661561 9.660488 139.999985
[Rope1_Seg09]
21 121.602913 0.000119 -0.000089 -89.793175 -1.359789 0.847147 121.602913
22 121.602913 0.000119 -0.000089 -89.793175 -1.359789 0.847147 121.602913
[L_mid_hand01]
21 103.859421 1.038730 8.195221 106.855484 -31.239275 -9.461397 104.187431
22 103.859421 1.038730 8.195221 106.855484 -31.239275 -9.461397 104.187431
[L_mid_hand02]
21 105.572853 -4.139662 -10.864139 -142.331345 25.752670 -28.774628 106.211075
22 105.572853 -4.139662 -10.864139 -142.331345 25.752670 -28.774628 106.211075
[L_mid_hand03]
21 104.641464 17.579376 -3.913581 -16.122810 9.734291 34.223598 106.179977
22 104.641464 17.579376 -3.913581 -16.122810 9.734291 34.223598 106.179977
[null_rope02_connect]
21 328.732849 0.000179 -0.000119 174.610336 81.478409 -39.424759 328.732849
22 328.732849 0.000179 -0.000119 174.610336 81.478409 -39.424759 328.732849
[Rope2_Seg01]
21 0.000076 0.000111 0.000153 163.207870 52.450565 -68.608810 0.000203
22 0.000076 0.000111 0.000153 161.911285 53.212395 -70.026962 0.000203
[Rope2_Seg02]
21 139.999741 -0.000060 -0.000119 -12.447708 9.610992 5.364626 139.999756
22 139.999741 -0.000060 -0.000119 -11.320100 10.462492 4.058864 139.999756
[Rope2_Seg03]
21 140.000107 0.000030 0.000000 -15.956425 14.949079 0.271953 140.000107
22 140.000107 0.000030 0.000000 -12.951606 15.882058 -2.410511 140.000107
[Rope2_Seg04]
21 139.999802 0.000000 -0.000060 -22.187895 -7.064246 19.376526 139.999802
22 139.999802 0.000000 -0.000060 -27.678263 -3.846378 19.468317 139.999802
[Rope2_Seg05]
21 139.999985 -0.000060 0.000119 -1.742289 -18.509459 9.019036 139.999985
22 139.999985 -0.000060 0.000119 -2.923497 -21.187746 11.173442 139.999985
[Rope2_Seg06]
21 139.999893 -0.000030 -0.000119 -0.589827 -4.896969 3.061750 139.999893
22 139.999893 -0.000030 -0.000119 -0.704667 -5.590150 3.507720 139.999893
[Rope2_Seg07]
21 139.999893 0.000060 -0.000060 -0.281632 -2.744525 1.705334 139.999893
22 139.999893 0.000060 -0.000060 -0.325986 -3.035314 1.907738 139.999893
[Rope2_Seg09]
21 121.338966 0.000089 -0.000060 33.793236 -1.359788 -0.847141 121.338966
22 121.338966 0.000089 -0.000060 33.793236 -1.359788 -0.847141 121.338966
[R_mid_hand01]
21 104.680779 11.144459 -10.335981 -41.523792 25.424656 28.595957 105.778534
22 104.680779 11.144459 -10.335981 -41.523792 25.424656 28.595957 105.778534
[R_mid_hand02]
21 104.070427 2.443552 8.231699 72.847389 -32.746803 10.013901 104.424065
22 104.070427 2.443552 8.231699 72.847389 -32.746803 10.013901 104.424065
[R_mid_hand03]
21 106.028137 -11.221827 -5.996406 -167.901306 10.259192 -37.009720 106.788818
22 106.028137 -11.221827 -5.996406 -167.901306 10.259192 -37.009720 106.788818
[spine02]
21 129.756927 0.001550 0.000119 0.360061 -4.044797 -12.915058 129.756927
22 129.756927 0.001550 0.000119 0.360061 -4.044797 -12.915058 129.756927
[spine03]
21 78.613846 0.087372 -4.898873 1.896495 3.831288 16.473045 78.766380
22 78.613846 0.087372 -4.898873 1.896495 3.831288 16.473045 78.766380
[pelvis]
21 169.435242 0.051022 0.000000 -0.060465 -0.180225 14.087930 169.435257
22 169.435242 0.051022 0.000000 -0.060465 -0.180225 14.087930 169.435257
[null_rope03_connect]
21 -1.257226 -2.466202 137.391083 -168.629776 -89.386429 -148.244614 137.418976
22 -1.257226 -2.466202 137.391083 -168.629776 -89.386429 -148.244614 137.418976
[null_rope04_connect]
21 -1.259640 -2.480268 -137.844437 -168.629776 -89.386429 -148.244614 137.872513
22 -1.259640 -2.480268 -137.844437 -168.629776 -89.386429 -148.244614 137.872513
[Rope3_Seg01]
21 0.000000 0.000000 0.000000 -141.912079 24.112005 -105.251945 0.000000
22 0.000000 0.000000 0.000000 -141.687912 22.766546 -107.024391 0.000000
[Rope3_Seg02]
21 139.999924 -0.000119 0.000060 0.775348 -3.685817 -7.391517 139.999924
22 139.999924 -0.000119 0.000060 0.410331 -4.676479 -7.326012 139.999924
[Rope3_Seg03]
21 139.999924 -0.000119 0.000119 0.920295 -5.503142 -10.599345 139.999924
22 139.999924 -0.000119 0.000119 0.685411 -6.763542 -10.447472 139.999924
[Rope3_Seg04]
21 139.999924 0.000119 0.000000 2.320301 -12.363234 -21.436924 139.999924
22 139.999924 0.000119 0.000000 2.509346 -13.969960 -20.257090 139.999924
[Rope3_Seg05]
21 139.999924 -0.000238 0.000060 -0.262009 3.934009 1.833624 139.999924
22 139.999924 -0.000238 0.000060 -0.287380 2.693210 0.331304 139.999924
[Rope3_Seg06]
21 139.999893 -0.000119 -0.000060 3.013548 14.964375 18.875134 139.999893
22 139.999893 -0.000119 -0.000060 2.567534 15.027154 16.289165 139.999893
[Rope3_Seg07]
21 139.999771 0.000060 -0.000119 1.511508 6.802962 7.350255 139.999771
22 139.999771 0.000060 -0.000119 1.506356 6.925674 6.488298 139.999771
[Rope3_Seg08]
21 139.999985 -0.000060 0.000000 1.213972 4.115057 4.243097 139.999985
22 139.999985 -0.000060 0.000000 1.268437 4.280666 3.816272 139.999985
[Rope3_Seg09]
21 90.185997 -0.000179 -0.000060 89.793228 -1.359877 -0.847183 90.185997
22 90.185997 -0.000179 -0.000060 89.793228 -1.359877 -0.847183 90.185997
[R_rear_hand01]
21 103.366196 -6.073594 -10.757982 -161.551193 16.666374 -30.088671 104.101845
22 103.366196 -6.073594 -10.757982 -161.551193 16.666374 -30.088671 104.101845
[R_rear_hand02]
21 100.509819 12.039542 -7.992327 -34.280552 19.289745 28.875523 101.543350
22 100.509819 12.039542 -7.992327 -34.280552 19.289745 28.875523 101.543350
[R_rear_hand03]
21 101.539970 5.215704 5.435467 83.366440 -30.933914 7.284830 101.819031
22 101.539970 5.215704 5.435467 83.366440 -30.933914 7.284830 101.819031
[Rope4_Seg01]
21 0.000010 0.000038 -0.000114 43.340858 16.134094 -115.814056 0.000121
22 0.000010 0.000038 -0.000114 42.492474 16.685303 -118.119377 0.000121
[Rope4_Seg02]
21 139.999985 0.000060 0.000119 0.639475 10.517007 6.167446 139.999985
22 139.999985 0.000060 0.000119 0.743089 10.192277 6.799952 139.999985
[Rope4_Seg03]
21 139.999924 0.000000 -0.000238 1.000544 14.878522 8.934566 139.999924
22 139.999924 0.000000 -0.000238 0.970989 14.838436 10.070937 139.999924
[Rope4_Seg04]
21 139.999985 0.000000 0.000119 1.301301 23.272411 15.422745 139.999985
22 139.999985 0.000000 0.000119 0.499702 23.782347 17.744864 139.999985
[Rope4_Seg05]
21 139.999802 -0.000060 -0.000119 1.496192 -0.933216 -1.900085 139.999802
22 139.999802 -0.000060 -0.000119 0.963779 0.407769 -0.652716 139.999802
[Rope4_Seg06]
21 139.999924 0.000000 0.000060 4.837240 -17.917152 -14.000039 139.999924
22 139.999924 0.000000 0.000060 5.755119 -16.251648 -14.438228 139.999924
[Rope4_Seg07]
21 139.999802 0.000000 0.000000 1.104072 -8.243967 -5.921835 139.999802
22 139.999802 0.000000 0.000000 1.321521 -7.695747 -6.038526 139.999802
[Rope4_Seg08]
21 139.999924 0.000000 0.000119 -1.150513 -4.504320 -3.185709 139.999924
22 139.999924 0.000000 0.000119 -1.059028 -4.195031 -3.211623 139.999924
[Rope4_Seg09]
21 90.185791 0.000060 0.000060 -135.617828 2.228885 0.850567 90.185791
22 90.185791 0.000060 0.000060 -135.617828 2.228885 0.850567 90.185791
[L_rear_hand01]
21 101.696655 -8.392275 -7.654577 -34.454281 -18.946800 151.655121 102.329041
22 101.696655 -8.392275 -7.654577 -34.454281 -18.946800 151.655121 102.329041
[L_rear_hand02]
21 102.726799 -1.568258 5.773216 83.407906 30.330435 172.796509 102.900848
22 102.726799 -1.568258 5.773216 83.407906 30.330435 172.796509 102.900848
[L_rear_hand03]
21 104.552910 9.721220 -10.420293 -161.379868 -16.473232 -150.512238 105.519653
22 104.552910 9.721220 -10.420293 -161.379868 -16.473232 -150.512238 105.519653
